<svg xmlns="http://www.w3.org/2000/svg" xmlns:xlink="http://www.w3.org/1999/xlink" width="1920" zoomAndPan="magnify" viewBox="0 0 1440 809.999993" height="1080" preserveAspectRatio="xMidYMid meet" version="1.0"><defs><filter x="0%" y="0%" width="100%" height="100%" id="fd709f4dc7"><feColorMatrix values="0 0 0 0 1 0 0 0 0 1 0 0 0 0 1 0 0 0 1 0" color-interpolation-filters="sRGB"/></filter><mask id="da3d3d78b7"><g filter="url(#fd709f4dc7)"><rect x="-144" width="1728" fill="#000000" y="-80.999999" height="971.999992" fill-opacity="0.36"/></g></mask><clipPath id="7b413dc102"><path d="M 0 378.246094 L 44 378.246094 L 44 429.253906 L 0 429.253906 Z M 0 378.246094 " clip-rule="nonzero"/></clipPath><clipPath id="d4b041bdcf"><path d="M 43 0.59375 L 88 0.59375 L 88 52 L 43 52 Z M 43 0.59375 " clip-rule="nonzero"/></clipPath><clipPath id="3ed7abc41b"><path d="M 610 0.59375 L 655 0.59375 L 655 77 L 610 77 Z M 610 0.59375 " clip-rule="nonzero"/></clipPath><clipPath id="24ba91ec40"><rect x="0" width="1440" y="0" height="430"/></clipPath></defs><g mask="url(#da3d3d78b7)"><g transform="matrix(1, 0, 0, 1, 0, 107)"><g clip-path="url(#24ba91ec40)"><path fill="#66c3d0" d="M 422.066406 25.941406 L 443.53125 13.542969 L 443.53125 38.328125 L 422.066406 25.941406 " fill-opacity="1" fill-rule="evenodd"/><path fill="#416e89" d="M 698.1875 353.675781 L 698.1875 303.285156 L 654.546875 278.085938 L 654.546875 328.476562 L 698.1875 353.675781 " fill-opacity="1" fill-rule="evenodd"/><path fill="#4a8ea5" d="M 0.0117188 152.121094 L 0 202.496094 L 43.640625 227.699219 L 87.277344 202.496094 L 87.277344 101.730469 L 0.0117188 152.121094 " fill-opacity="1" fill-rule="evenodd"/><path fill="#416e89" d="M 174.554688 101.730469 L 174.554688 152.121094 L 87.277344 101.730469 L 130.917969 76.542969 L 174.554688 101.730469 " fill-opacity="1" fill-rule="evenodd"/><path fill="#416e89" d="M 0 252.886719 L 43.640625 278.085938 L 87.277344 252.898438 L 43.640625 227.699219 L 0 252.886719 " fill-opacity="1" fill-rule="evenodd"/><path fill="#539fb2" d="M 174.554688 152.121094 L 87.277344 202.507812 L 174.554688 252.886719 Z M 174.554688 152.121094 " fill-opacity="1" fill-rule="evenodd"/><path fill="#4a8ea5" d="M 87.277344 252.886719 L 130.917969 227.699219 L 130.917969 177.320312 L 87.277344 152.121094 L 87.277344 252.886719 " fill-opacity="1" fill-rule="evenodd"/><path fill="#416e89" d="M 480.003906 227.699219 L 523.632812 202.507812 L 523.632812 252.886719 L 480.003906 227.699219 " fill-opacity="1" fill-rule="evenodd"/><path fill="#384665" d="M 610.910156 404.054688 L 654.546875 378.863281 L 610.910156 353.675781 L 567.269531 378.863281 L 610.910156 404.054688 " fill-opacity="1" fill-rule="evenodd"/><path fill="#4a8ea5" d="M 261.820312 101.730469 L 305.460938 126.929688 L 261.820312 152.121094 L 218.195312 126.929688 L 261.820312 101.730469 " fill-opacity="1" fill-rule="evenodd"/><path fill="#384665" d="M 43.640625 177.308594 L 0 202.496094 L 43.640625 227.699219 L 87.277344 202.496094 L 43.640625 177.308594 " fill-opacity="1" fill-rule="evenodd"/><path fill="#416e89" d="M 87.277344 202.507812 L 43.640625 227.699219 L 43.640625 278.085938 L 87.277344 303.285156 L 130.917969 278.085938 L 130.917969 227.699219 L 87.277344 202.507812 " fill-opacity="1" fill-rule="evenodd"/><path fill="#539fb2" d="M 87.277344 252.886719 L 130.917969 278.085938 L 87.277344 303.285156 L 43.640625 278.085938 L 87.277344 252.886719 " fill-opacity="1" fill-rule="evenodd"/><path fill="#66c3d0" d="M 43.640625 177.308594 L 0.0117188 202.507812 L 0.0117188 152.121094 L 43.640625 177.308594 " fill-opacity="1" fill-rule="evenodd"/><path fill="#66c3d0" d="M 87.277344 51.34375 L 87.277344 152.121094 L 130.917969 126.929688 L 130.917969 76.542969 L 87.277344 51.34375 " fill-opacity="1" fill-rule="evenodd"/><path fill="#384665" d="M 43.640625 76.542969 L 0.0117188 101.730469 L 0.0117188 51.34375 L 43.640625 76.542969 " fill-opacity="1" fill-rule="evenodd"/><path fill="#384665" d="M 174.554688 202.507812 L 218.195312 227.699219 L 218.195312 177.308594 L 174.554688 152.121094 L 174.554688 202.507812 " fill-opacity="1" fill-rule="evenodd"/><g clip-path="url(#7b413dc102)"><path fill="#416e89" d="M 0.0117188 404.0625 L 43.640625 429.253906 L 43.640625 378.863281 L 0.0117188 404.0625 " fill-opacity="1" fill-rule="evenodd"/></g><path fill="#416e89" d="M 305.460938 177.320312 L 261.820312 202.507812 L 261.820312 152.121094 L 305.460938 177.320312 " fill-opacity="1" fill-rule="evenodd"/><path fill="#416e89" d="M 436.363281 101.730469 L 480.003906 126.929688 L 436.363281 152.121094 L 392.726562 126.929688 L 436.363281 101.730469 " fill-opacity="1" fill-rule="evenodd"/><path fill="#4a8ea5" d="M 349.097656 152.121094 L 392.726562 177.308594 L 392.726562 126.929688 L 349.097656 152.121094 " fill-opacity="1" fill-rule="evenodd"/><path fill="#384665" d="M 523.632812 51.34375 L 567.269531 76.542969 L 567.269531 126.929688 L 480.003906 76.542969 L 523.632812 51.34375 " fill-opacity="1" fill-rule="evenodd"/><path fill="#539fb2" d="M 610.910156 152.121094 L 654.546875 177.308594 L 654.546875 227.699219 L 610.910156 252.886719 L 567.269531 227.699219 L 567.269531 177.308594 L 610.910156 152.121094 " fill-opacity="1" fill-rule="evenodd"/><path fill="#384665" d="M 567.269531 177.308594 L 523.632812 152.121094 L 523.632812 202.507812 L 567.269531 177.308594 " fill-opacity="1" fill-rule="evenodd"/><path fill="#416e89" d="M 610.910156 252.886719 L 654.546875 227.699219 L 610.910156 202.507812 L 567.269531 227.699219 L 610.910156 252.886719 " fill-opacity="1" fill-rule="evenodd"/><path fill="#66c3d0" d="M 87.277344 202.507812 L 87.277344 252.886719 L 43.640625 278.085938 L 43.640625 227.699219 L 87.277344 202.507812 " fill-opacity="1" fill-rule="evenodd"/><path fill="#416e89" d="M 174.554688 152.121094 L 87.277344 202.507812 L 87.277344 101.730469 L 174.554688 152.121094 " fill-opacity="1" fill-rule="evenodd"/><path fill="#384665" d="M 87.277344 101.730469 L 130.917969 126.929688 L 87.277344 152.121094 L 43.640625 126.929688 L 87.277344 101.730469 " fill-opacity="1" fill-rule="evenodd"/><path fill="#4a8ea5" d="M 218.195312 126.929688 L 218.195312 177.320312 L 174.554688 202.507812 L 130.917969 177.320312 L 130.917969 126.929688 L 174.554688 101.730469 L 218.195312 126.929688 " fill-opacity="1" fill-rule="evenodd"/><path fill="#539fb2" d="M 174.542969 101.730469 L 174.542969 152.121094 L 218.195312 177.308594 L 218.195312 126.929688 L 174.542969 101.730469 " fill-opacity="1" fill-rule="evenodd"/><path fill="#4a8ea5" d="M 87.277344 303.285156 L 87.277344 353.675781 L 43.640625 378.863281 L 43.640625 328.476562 L 87.277344 303.285156 " fill-opacity="1" fill-rule="evenodd"/><path fill="#416e89" d="M 174.542969 252.886719 L 174.542969 303.285156 L 218.195312 328.476562 L 218.195312 278.085938 L 174.542969 252.886719 " fill-opacity="1" fill-rule="evenodd"/><path fill="#66c3d0" d="M 349.097656 202.507812 L 392.726562 227.699219 L 349.097656 252.886719 L 305.460938 227.699219 L 349.097656 202.507812 " fill-opacity="1" fill-rule="evenodd"/><path fill="#539fb2" d="M 436.363281 152.121094 L 436.363281 202.507812 L 480.003906 227.699219 L 480.003906 177.308594 L 436.363281 152.121094 " fill-opacity="1" fill-rule="evenodd"/><path fill="#4a8ea5" d="M 654.546875 126.929688 L 610.910156 101.730469 L 610.910156 152.121094 L 654.546875 126.929688 " fill-opacity="1" fill-rule="evenodd"/><path fill="#416e89" d="M 567.269531 328.476562 L 567.269531 278.085938 L 610.910156 252.886719 L 610.910156 353.675781 L 567.269531 328.476562 " fill-opacity="1" fill-rule="evenodd"/><path fill="#384665" d="M 698.1875 252.886719 L 654.546875 227.699219 L 654.546875 278.085938 L 698.1875 252.886719 " fill-opacity="1" fill-rule="evenodd"/><path fill="#4a8ea5" d="M 654.546875 76.542969 L 698.1875 51.34375 L 698.1875 101.730469 L 654.546875 76.542969 " fill-opacity="1" fill-rule="evenodd"/><g clip-path="url(#d4b041bdcf)"><path fill="#539fb2" d="M 43.640625 26.152344 L 87.277344 51.34375 L 87.277344 0.964844 L 43.640625 26.152344 " fill-opacity="1" fill-rule="evenodd"/></g><path fill="#384665" d="M 43.640625 278.085938 L 43.640625 328.476562 L 0 353.664062 L 0 303.273438 L 43.640625 278.085938 " fill-opacity="1" fill-rule="evenodd"/><path fill="#539fb2" d="M 218.195312 227.699219 L 261.820312 252.886719 L 261.820312 202.507812 L 218.195312 227.699219 " fill-opacity="1" fill-rule="evenodd"/><path fill="#384665" d="M 305.460938 278.085938 L 261.820312 303.285156 L 261.820312 252.886719 L 305.460938 278.085938 " fill-opacity="1" fill-rule="evenodd"/><path fill="#384665" d="M 218.195312 76.542969 L 174.542969 101.730469 L 174.542969 51.34375 L 218.195312 76.542969 " fill-opacity="1" fill-rule="evenodd"/><path fill="#4a8ea5" d="M 392.726562 76.542969 L 349.097656 101.730469 L 349.097656 51.34375 L 392.726562 76.542969 " fill-opacity="1" fill-rule="evenodd"/><path fill="#66c3d0" d="M 436.363281 252.886719 L 480.003906 278.085938 L 480.003906 227.699219 L 436.363281 252.886719 " fill-opacity="1" fill-rule="evenodd"/><path fill="#4a8ea5" d="M 436.363281 303.285156 L 392.726562 328.476562 L 392.726562 278.085938 L 436.363281 303.285156 " fill-opacity="1" fill-rule="evenodd"/><path fill="#384665" d="M 567.269531 227.699219 L 567.269531 278.085938 L 523.632812 303.285156 L 523.632812 252.886719 L 567.269531 227.699219 " fill-opacity="1" fill-rule="evenodd"/><path fill="#416e89" d="M 480.003906 328.476562 L 523.632812 353.675781 L 523.632812 303.285156 L 480.003906 328.476562 " fill-opacity="1" fill-rule="evenodd"/><g clip-path="url(#3ed7abc41b)"><path fill="#539fb2" d="M 610.910156 0.964844 L 610.910156 51.34375 L 654.546875 76.542969 L 654.546875 26.152344 L 610.910156 0.964844 " fill-opacity="1" fill-rule="evenodd"/></g><path fill="#66c3d0" d="M 480.003906 126.929688 L 523.632812 152.121094 L 523.632812 101.730469 L 480.003906 126.929688 " fill-opacity="1" fill-rule="evenodd"/><path fill="#416e89" d="M 523.632812 101.730469 L 567.269531 126.929688 L 567.269531 76.542969 L 523.632812 101.730469 " fill-opacity="1" fill-rule="evenodd"/><path fill="#539fb2" d="M 480.003906 76.542969 L 523.632812 101.730469 L 523.632812 51.34375 L 480.003906 76.542969 " fill-opacity="1" fill-rule="evenodd"/><path fill="#66c3d0" d="M 410.882812 227.699219 L 427.285156 237.171875 L 427.285156 218.226562 L 410.882812 227.699219 " fill-opacity="1" fill-rule="evenodd"/><path fill="#66c3d0" d="M 584.019531 76.542969 L 602.539062 87.21875 L 602.539062 65.855469 L 584.019531 76.542969 " fill-opacity="1" fill-rule="evenodd"/><path fill="#66c3d0" d="M 281.375 51.34375 L 295.683594 59.613281 L 295.683594 43.085938 L 281.375 51.34375 " fill-opacity="1" fill-rule="evenodd"/><path fill="#66c3d0" d="M 154.304688 303.285156 L 141.03125 295.625 L 141.03125 310.949219 L 154.304688 303.285156 " fill-opacity="1" fill-rule="evenodd"/><path fill="#66c3d0" d="M 567.269531 278.085938 L 610.910156 252.886719 L 654.546875 278.085938 L 567.269531 328.476562 L 567.269531 278.085938 " fill-opacity="1" fill-rule="evenodd"/><path fill="#416e89" d="M 959.996094 303.273438 L 1047.273438 252.886719 L 1047.273438 202.496094 L 1003.636719 177.308594 L 959.996094 202.496094 L 872.730469 152.121094 L 785.453125 202.496094 L 741.8125 177.308594 L 698.1875 202.496094 L 698.1875 252.886719 L 741.8125 278.085938 L 741.8125 328.476562 L 829.089844 278.085938 L 872.730469 303.273438 L 872.730469 252.886719 L 959.996094 303.273438 " fill-opacity="1" fill-rule="evenodd"/><path fill="#416e89" d="M 1309.09375 252.886719 L 1265.457031 227.699219 L 1265.457031 177.308594 L 1309.09375 202.496094 L 1352.722656 177.308594 L 1352.722656 227.699219 L 1309.09375 252.886719 " fill-opacity="1" fill-rule="evenodd"/><path fill="#416e89" d="M 1090.914062 278.085938 L 1047.273438 252.886719 L 1090.914062 227.699219 L 1134.539062 252.886719 L 1090.914062 278.085938 " fill-opacity="1" fill-rule="evenodd"/><path fill="#416e89" d="M 1221.816406 202.496094 L 1221.816406 152.121094 L 1265.457031 126.929688 L 1265.457031 177.308594 L 1221.816406 202.496094 " fill-opacity="1" fill-rule="evenodd"/><path fill="#66c3d0" d="M 1309.09375 101.730469 L 1309.09375 51.34375 L 1265.457031 76.53125 L 1309.09375 101.730469 " fill-opacity="1" fill-rule="evenodd"/><path fill="#4a8ea5" d="M 1178.179688 227.699219 L 1178.179688 278.085938 L 1134.539062 252.886719 L 1134.539062 202.496094 L 1178.179688 177.308594 L 1221.816406 202.496094 L 1178.179688 227.699219 " fill-opacity="1" fill-rule="evenodd"/><path fill="#384665" d="M 1178.179688 328.476562 L 1221.816406 303.273438 L 1178.179688 278.085938 L 1134.539062 303.273438 L 1178.179688 328.476562 " fill-opacity="1" fill-rule="evenodd"/><path fill="#4a8ea5" d="M 1221.816406 404.054688 L 1221.816406 353.664062 L 1265.457031 378.863281 L 1221.816406 404.054688 " fill-opacity="1" fill-rule="evenodd"/><path fill="#384665" d="M 1309.09375 303.273438 L 1309.09375 252.886719 L 1265.457031 278.085938 L 1309.09375 303.273438 " fill-opacity="1" fill-rule="evenodd"/><path fill="#384665" d="M 1396.359375 303.273438 L 1396.359375 252.886719 L 1352.722656 278.085938 L 1396.359375 303.273438 " fill-opacity="1" fill-rule="evenodd"/><path fill="#539fb2" d="M 1003.625 278.085938 L 959.996094 252.886719 L 959.996094 202.496094 L 1003.636719 177.308594 L 1047.273438 202.496094 L 1047.273438 252.886719 L 1003.625 278.085938 " fill-opacity="1" fill-rule="evenodd"/><path fill="#4a8ea5" d="M 1003.636719 227.699219 L 1003.625 278.085938 L 959.996094 252.886719 L 959.996094 202.496094 L 1003.636719 177.308594 L 1047.273438 202.496094 L 1003.636719 227.699219 " fill-opacity="1" fill-rule="evenodd"/><path fill="#384665" d="M 1047.273438 202.496094 L 1047.273438 152.121094 L 1090.914062 177.308594 L 1047.273438 202.496094 " fill-opacity="1" fill-rule="evenodd"/><path fill="#384665" d="M 959.996094 303.285156 L 959.996094 252.886719 L 1003.625 278.085938 L 959.996094 303.285156 " fill-opacity="1" fill-rule="evenodd"/><path fill="#66c3d0" d="M 959.996094 353.675781 L 959.996094 303.285156 L 1003.625 328.476562 L 959.996094 353.675781 " fill-opacity="1" fill-rule="evenodd"/><path fill="#384665" d="M 916.367188 227.699219 L 916.367188 177.308594 L 959.996094 202.496094 L 916.367188 227.699219 " fill-opacity="1" fill-rule="evenodd"/><path fill="#539fb2" d="M 872.730469 252.886719 L 829.089844 227.699219 L 829.089844 177.308594 L 872.730469 202.496094 L 916.367188 177.308594 L 916.367188 227.699219 L 872.730469 252.886719 " fill-opacity="1" fill-rule="evenodd"/><path fill="#416e89" d="M 872.730469 202.496094 L 829.089844 177.308594 L 872.730469 152.121094 L 916.367188 177.308594 L 872.730469 202.496094 " fill-opacity="1" fill-rule="evenodd"/><path fill="#384665" d="M 829.089844 328.476562 L 829.089844 278.085938 L 872.730469 252.886719 L 872.730469 303.273438 L 829.089844 328.476562 " fill-opacity="1" fill-rule="evenodd"/><path fill="#416e89" d="M 829.089844 278.085938 L 829.089844 227.699219 L 872.730469 252.886719 L 829.089844 278.085938 " fill-opacity="1" fill-rule="evenodd"/><path fill="#416e89" d="M 872.730469 353.664062 L 872.730469 303.273438 L 916.367188 328.476562 L 872.730469 353.664062 " fill-opacity="1" fill-rule="evenodd"/><path fill="#4a8ea5" d="M 829.089844 227.699219 L 829.089844 177.308594 L 785.453125 202.496094 L 829.089844 227.699219 " fill-opacity="1" fill-rule="evenodd"/><path fill="#66c3d0" d="M 829.089844 177.308594 L 829.089844 126.929688 L 785.453125 152.121094 L 829.089844 177.308594 " fill-opacity="1" fill-rule="evenodd"/><path fill="#4a8ea5" d="M 785.453125 303.285156 L 785.453125 252.886719 L 829.089844 278.085938 L 785.453125 303.285156 " fill-opacity="1" fill-rule="evenodd"/><path fill="#384665" d="M 785.453125 252.886719 L 741.8125 278.085938 L 741.8125 227.699219 L 785.453125 202.496094 L 829.089844 227.699219 L 829.089844 278.085938 L 785.453125 252.886719 " fill-opacity="1" fill-rule="evenodd"/><path fill="#4a8ea5" d="M 741.8125 227.699219 L 741.8125 278.085938 L 698.1875 252.886719 L 698.1875 202.496094 L 741.8125 177.308594 L 785.453125 202.496094 L 741.8125 227.699219 " fill-opacity="1" fill-rule="evenodd"/><path fill="#4a8ea5" d="M 741.8125 126.929688 L 698.1875 101.730469 L 741.8125 76.542969 L 785.453125 101.730469 L 741.8125 126.929688 " fill-opacity="1" fill-rule="evenodd"/><path fill="#384665" d="M 654.546875 177.308594 L 654.546875 126.929688 L 698.1875 152.121094 L 654.546875 177.308594 " fill-opacity="1" fill-rule="evenodd"/><path fill="#4a8ea5" d="M 741.8125 177.308594 L 741.8125 126.929688 L 785.453125 152.121094 L 741.8125 177.308594 " fill-opacity="1" fill-rule="evenodd"/><path fill="#66c3d0" d="M 1352.722656 177.308594 L 1352.722656 126.929688 L 1396.359375 152.121094 L 1352.722656 177.308594 " fill-opacity="1" fill-rule="evenodd"/><path fill="#4a8ea5" d="M 1090.914062 328.476562 L 1090.914062 278.085938 L 1047.273438 303.273438 L 1090.914062 328.476562 " fill-opacity="1" fill-rule="evenodd"/><path fill="#66c3d0" d="M 1047.273438 404.054688 L 1003.625 378.863281 L 1047.273438 353.675781 L 1090.914062 378.863281 L 1047.273438 404.054688 " fill-opacity="1" fill-rule="evenodd"/><path fill="#416e89" d="M 1352.722656 378.863281 L 1352.722656 328.476562 L 1309.09375 303.273438 L 1309.09375 353.664062 L 1352.722656 378.863281 " fill-opacity="1" fill-rule="evenodd"/><path fill="#384665" d="M 1396.359375 252.886719 L 1396.359375 202.496094 L 1440 177.308594 L 1440 227.699219 L 1396.359375 252.886719 " fill-opacity="1" fill-rule="evenodd"/><path fill="#539fb2" d="M 1440 378.863281 L 1440 328.476562 L 1396.359375 353.675781 L 1440 378.863281 " fill-opacity="1" fill-rule="evenodd"/><path fill="#384665" d="M 1440 126.929688 L 1440 76.53125 L 1396.359375 101.730469 L 1440 126.929688 " fill-opacity="1" fill-rule="evenodd"/><path fill="#66c3d0" d="M 1231.628906 336.664062 L 1231.628906 320.285156 L 1245.8125 328.476562 L 1231.628906 336.664062 " fill-opacity="1" fill-rule="evenodd"/><path fill="#66c3d0" d="M 838.902344 109.921875 L 838.902344 93.542969 L 853.097656 101.730469 L 838.902344 109.921875 " fill-opacity="1" fill-rule="evenodd"/><path fill="#66c3d0" d="M 1386.539062 84.734375 L 1386.539062 68.351562 L 1372.363281 76.53125 L 1386.539062 84.734375 " fill-opacity="1" fill-rule="evenodd"/><path fill="#66c3d0" d="M 731.597656 361.167969 L 718.605469 353.664062 L 731.597656 346.160156 Z M 731.597656 361.167969 " fill-opacity="1" fill-rule="evenodd"/><path fill="#539fb2" d="M 1178.179688 328.476562 L 1178.179688 278.085938 L 1221.816406 252.886719 L 1221.816406 303.273438 L 1178.179688 328.476562 " fill-opacity="1" fill-rule="evenodd"/></g></g></g></svg>